<svg xmlns="http://www.w3.org/2000/svg" xmlns:xlink="http://www.w3.org/1999/xlink" xmlns:lucid="lucid" width="1825.4" height="640"><g transform="translate(-20 0)" lucid:page-tab-id="0_0"><path d="M0 0h1870.87v1322.83H0z" fill="#fff"/><path d="M117 351.92h15.8v11.73H117v-11.73zM177.2 220H240v153.34h-62.8V220z" fill="#29aae1"/><path d="M41 245.84h166.2V352.1H41V245.83z" fill="#29aae1"/><path d="M48.6 252.3h151.6v95.03H48.6V252.3z" fill="#fff" fill-opacity=".98"/><path d="M47.6 364.5H199l-7.4 25.33H40l7.6-25.33z" fill="#29aae1"/><path d="M46.6 363.65h155l13 26.35h-155l-13-26.35z" fill="#29aae1"/><path d="M99.2 383.2h55.2v5.27H99.2v-5.27zM68.8 367.73H73v3.4h-4.2v-3.4zM76 367.9h4.2v3.4H76v-3.4zM85.4 374.02h4v3.4h-4v-3.4zM83.8 367.56H88v3.4h-4.2v-3.4zM90.8 367.73H95v3.4h-4.2v-3.4zM97.8 367.56h4v3.4h-4v-3.4zM140.4 368.07h4.2v3.4h-4.2v-3.4zM146.8 368.07h4v3.4h-4v-3.4zM152.6 368.07h4.2v3.4h-4.2v-3.4zM159.6 368.07h4.2v3.4h-4.2v-3.4zM166.2 368.07h4v3.4h-4v-3.4zM158.4 373.68h4.2v3.4h-4.2v-3.4zM173.6 368.07h4.2v3.4h-4.2v-3.4zM93 373.85h4.2v3.4H93v-3.4zM101 373.85h4v3.4h-4v-3.4zM152 373.5h3.6v3.4H152v-3.4zM145 373.5h4v3.4h-4v-3.4zM105.4 367.73h4v3.4h-4v-3.4zM113 367.9h4.2v3.4H113v-3.4zM120.2 367.73h4.2v3.4h-4.2v-3.4zM128.2 367.73h4v3.4h-4v-3.4zM134.6 367.9h4.2v3.4h-4.2v-3.4zM108 373.68h4v3.4h-4v-3.4zM115.6 373.68h4.2v3.4h-4.2v-3.4zM123 373.85h4v3.4h-4v-3.4zM130 373.85h4.2v3.4H130v-3.4zM137.4 373.5h4v3.4h-4v-3.4z" fill="#fff"/><path d="M40.2 389.83l174.4-.5-12.4-25.68-154.4.17-7.6 26z" fill="none"/><path d="M221.6 228h11.2c1.2 0 1.2 0 1.2 1.18 0 1.2 0 1.2-1.2 1.2h-11.2c-1.2 0-1.2 0-1.2-1.2s0-1.2 1.2-1.2zM221.6 233.6H233c1 0 1 0 1 1.02s0 1.02-1 1.02h-11.4c-1.2 0-1.2 0-1.2-1.02s0-1.02 1.2-1.02zM177.4 244.14h30.2v1.36h-30.2v-1.36zM207.6 244.14h1.4v108.3h-1.4v-108.3z" fill="#fff"/><path d="M177.2 352.26h31.6v1.53h-31.6v-1.54zM177.4 360.93h24.2c1.2 0 1.2 0 1.2 1.2 0 1.35 0 1.35-1.2 1.35h-24.2c-1.2 0-1.2 0-1.2-1.36 0-1.2 0-1.2 1.2-1.2z" fill="#fff"/><path d="M202.6 361.27l6.8 11.73-2 1.2-6.6-11.9 1.8-1.03zM116.2 351.92h17v1.7h-17v-1.7zM116.8 361.78H133v1.87h-16.2v-1.87z" fill="#fff"/><use xlink:href="#a" transform="matrix(1,0,0,1,10,390) translate(78.45679012345678 19.444444444444443)"/><use xlink:href="#b" transform="matrix(1,0,0,1,10,390) translate(129.8148148148148 19.444444444444443)"/><path d="M1214.97 378.44H969.4c-5.1 0-9.36-6.05-9.36-10.9V301.1c0-4.92 4.26-9.07 9.37-9.07h245.57c1.7 0 5.1 0 28.1 43.48l.86 1.47-.85 1.47c-23 40.02-26.4 40.02-28.1 40.02zm-245.84-80.38c-2 0-3.4 1.47-3.4 3.02v66.38c0 2.33 1.98 4.93 3.4 4.93h244.7c2.85-2.6 13.63-19.98 22.72-35.88-9.1-17.37-19.87-35.87-23.28-38.8H969.13v.34z" stroke="#000" stroke-opacity="0" fill="#2a3282"/><path d="M1044.07 307.4H978.5c-2 0-3.7 1.46-3.7 3.7v49.1c0 1.9 1.42 3.8 3.7 3.8h65.57c2 0 3.98-1.47 3.98-3.8v-49.1c-.57-2.24-2-3.7-3.98-3.7zm-5.67 7.5l-27.83 21.53-27.53-21.52h55.36zm-56.5 41.5V324l26.4 20.38c.86.35 1.42.7 2.27.7.86 0 1.42-.35 2.28-.7l27.25-21.17v33.2h-58.2zM1124.7 307.4h-65.58c-2 0-3.7 1.46-3.7 3.7v49.1c0 1.9 1.43 3.8 3.7 3.8h65.58c1.98 0 3.97-1.47 3.97-3.8v-49.1c0-2.24-2-3.7-3.97-3.7zm-5.68 7.5l-27.82 21.53-27.54-21.52h55.36zm-56.5 41.5V324l26.4 20.38c.86.35 1.43.7 2.28.7.85 0 1.42-.35 2.27-.7l27.25-21.17v33.2h-58.2zM1205.32 307.4h-65.58c-1.98 0-3.7 1.46-3.7 3.7v49.1c0 1.9 1.43 3.8 3.7 3.8h65.58c2 0 3.98-1.47 3.98-3.8v-49.1c0-2.24-2-3.7-3.98-3.7zm-5.68 7.5l-27.82 21.53-27.53-21.52h55.34zm-56.2 41.5V324l26.4 20.38c.85.35 1.7.7 2.27.7.86 0 1.7-.35 2.28-.7l27.25-21.17v33.2h-58.2z" stroke="#000" stroke-opacity="0" fill="#2a3282"/><use xlink:href="#c" transform="matrix(1,0,0,1,930.0431955295729,387.4380079599587) translate(149.175 14.4)"/><path d="M551.1 335.22h390.44" stroke="#5e5e5e" stroke-width="2" fill="none"/><path d="M551.14 336.22h-.95l-.17-2h1.1z" fill="#5e5e5e"/><path d="M956.8 335.22l-14.26 4.64v-9.27z" stroke="#5e5e5e" stroke-width="2" fill="#5e5e5e"/><use xlink:href="#d" transform="matrix(1,0,0,1,640.0588105579342,309.889625175161) translate(0 14.222222222222223)"/><use xlink:href="#e" transform="matrix(1,0,0,1,640.0588105579342,309.889625175161) translate(20.69135802469136 14.222222222222223)"/><use xlink:href="#f" transform="matrix(1,0,0,1,640.0588105579342,309.889625175161) translate(68.98765432098767 14.222222222222223)"/><use xlink:href="#g" transform="matrix(1,0,0,1,640.0588105579342,309.889625175161) translate(108.88888888888891 14.222222222222223)"/><path d="M1758.68 357.95c-7.08 3.7-10.2 12.63-6.48 19.73 3.72 7.1 12.6 9.82 19.68 6.42 7.2-3.7 10.2-12.64 6.48-19.74-3.72-7.4-12.6-10.1-19.68-6.4zm9.24 17.88c-2.76 1.17-5.88.3-7.08-2.52-1.2-2.72-.36-5.73 2.16-7.1 2.76-1.16 5.76-.28 7.32 2.54 1.32 2.43 0 5.44-2.4 7.1z" stroke="#000" stroke-opacity="0" fill="#0078d7"/><path d="M1820.24 322.36h-109.56c-2.76 0-5.28 2.73-5.28 6.13v84.96c0 3.3 2.4 6.12 5.28 6.12h109.56c2.76 0 5.16-2.82 5.16-6.12V328.5c0-3.32-2.4-6.14-5.16-6.14zm-25.32 59.7l-5.52 8.94-7.68-3.1c-1.2 1.16-2.76 2.42-4.32 3.4l.84 8.65-10.08 2.43-3.12-7.68c-1.8 0-3.72-.4-5.52-.7l-5.28 6.82-8.88-5.54 3-7.4c-1.2-1.25-2.4-2.7-3.36-4.66l-8.28.98-2.4-10.2 7.32-3.03c0-1.84.36-3.8.96-5.64l-6.84-5.24 5.52-8.86 7.68 3c1.32-1.15 2.52-2.13 3.72-3l-1.2-8.65 10.2-2.74 3.36 7.68c2.16 0 4.08.3 5.88.88l5.52-6.8 8.88 5.63-3.36 7.97c1.2 1.17 2.16 2.73 3.12 4.28l8.88-.87 2.4 10.1-8.04 3.4c0 1.86-.24 3.4-.6 5.26l7.2 4.66z" stroke="#000" stroke-opacity="0" fill="#0078d7"/><use xlink:href="#h" transform="matrix(1,0,0,1,1675.4,428.5838988137613) translate(61.25 14.4)"/><path d="M1244.93 336.95h441.97" stroke="#5e5e5e" stroke-width="2" fill="none"/><path d="M1244.96 337.95h-1.6l.57-1-.58-1h1.6z" fill="#5e5e5e"/><path d="M1702.16 336.95l-14.26 4.64v-9.28z" stroke="#5e5e5e" stroke-width="2" fill="#5e5e5e"/><use xlink:href="#i" transform="matrix(1,0,0,1,1365.8816958525135,311.61822714949363) translate(0 14.222222222222223)"/><use xlink:href="#j" transform="matrix(1,0,0,1,1365.8816958525135,311.61822714949363) translate(20.69135802469136 14.222222222222223)"/><use xlink:href="#f" transform="matrix(1,0,0,1,1365.8816958525135,311.61822714949363) translate(68.98765432098767 14.222222222222223)"/><use xlink:href="#k" transform="matrix(1,0,0,1,1365.8816958525135,311.61822714949363) translate(108.88888888888891 14.222222222222223)"/><use xlink:href="#l" transform="matrix(1,0,0,1,1365.8816958525135,311.61822714949363) translate(189.8271604938272 14.222222222222223)"/><use xlink:href="#m" transform="matrix(1,0,0,1,1365.8816958525135,311.61822714949363) translate(211.4567901234568 14.222222222222223)"/><path d="M1214.97 520H969.4c-5.1 0-9.36-6.05-9.36-10.9v-66.45c0-4.93 4.26-9.08 9.37-9.08h245.57c1.7 0 5.1 0 28.1 43.47l.86 1.47-.85 1.48c-23 40.02-26.4 40.02-28.1 40.02zm-245.84-80.38c-2 0-3.4 1.47-3.4 3.03v66.37c0 2.34 1.98 4.93 3.4 4.93h244.7c2.85-2.6 13.63-19.97 22.72-35.87-9.1-17.37-19.87-35.87-23.28-38.8H969.13v.34z" stroke="#000" stroke-opacity="0" fill="#2a3282"/><path d="M1044.07 448.95H978.5c-2 0-3.7 1.47-3.7 3.72v49.1c0 1.9 1.42 3.8 3.7 3.8h65.57c2 0 3.98-1.47 3.98-3.8v-49.1c-.57-2.25-2-3.72-3.98-3.72zm-5.67 7.52L1010.57 478l-27.53-21.53h55.36zm-56.5 41.5v-32.42l26.4 20.4c.86.34 1.42.7 2.27.7.86 0 1.42-.36 2.28-.7l27.25-21.18v33.2h-58.2zM1124.7 448.95h-65.58c-2 0-3.7 1.47-3.7 3.72v49.1c0 1.9 1.43 3.8 3.7 3.8h65.58c1.98 0 3.97-1.47 3.97-3.8v-49.1c0-2.25-2-3.72-3.97-3.72zm-5.68 7.52L1091.2 478l-27.54-21.53h55.36zm-56.5 41.5v-32.42l26.4 20.4c.86.34 1.43.7 2.28.7.85 0 1.42-.36 2.27-.7l27.25-21.18v33.2h-58.2zM1205.32 448.95h-65.58c-1.98 0-3.7 1.47-3.7 3.72v49.1c0 1.9 1.43 3.8 3.7 3.8h65.58c2 0 3.98-1.47 3.98-3.8v-49.1c0-2.25-2-3.72-3.98-3.72zm-5.68 7.52L1171.82 478l-27.53-21.53h55.34zm-56.2 41.5v-32.42l26.4 20.4c.85.34 1.7.7 2.27.7.86 0 1.7-.36 2.28-.7l27.25-21.18v33.2h-58.2z" stroke="#000" stroke-opacity="0" fill="#2a3282"/><use xlink:href="#n" transform="matrix(1,0,0,1,930.0431955295729,529.0000000000001) translate(122.725 14.4)"/><path d="M920.04 250c0-16.57 13.43-30 30-30h314.6c16.57 0 30 13.43 30 30v340c0 16.57-13.43 30-30 30h-314.6c-16.57 0-30-13.43-30-30z" fill-opacity="0"/><path d="M935.08 224.1l3.18-1.7 4.7-1.56 4.93-.76 2.14-.08h14.98m15 0h29.95m14.98 0h29.96m15 0h29.95m14.98 0h29.97m14.98 0h29.96m14.98 0h29.96m14.98 0h14.98l5.02.42 4.8 1.22 4.55 2 .62.42m10.94 10.98l1.68 3.17 1.56 4.72.77 4.93.07 2.15v14.17m0 14.16v28.34m0 14.16v28.34m0 14.16v28.34m0 14.16v28.34m0 14.16v28.34m0 14.16v28.34m0 14.16v28.34m0 14.16V590l-.4 5-1.24 4.82-2 4.54-.42.6m-10.98 10.95l-3.17 1.7-4.7 1.56-4.93.76-2.16.08h-14.98m-14.98 0h-29.96m-14.98 0h-29.96m-14.98 0h-29.97m-14.98 0h-29.96m-15 0h-29.95m-14.98 0H980m-14.98 0h-14.98l-5-.42-4.82-1.22-4.54-2-.6-.42m-10.95-10.98l-1.68-3.17-1.57-4.72-.76-4.93-.08-2.15v-14.17m0-14.16v-28.34m0-14.16v-28.34m0-14.16v-28.34m0-14.16v-28.34m0-14.16v-28.34m0-14.16v-28.34m0-14.16v-28.34m0-14.16V250l.42-5 1.23-4.82 2-4.54.4-.6" stroke="#f7981f" stroke-width="3" fill="none"/><use xlink:href="#o" transform="matrix(1,0,0,1,920.0431955295728,590) translate(135.1851851851852 11.11111111111111)"/><path d="M521.9 365c-15.6 0-28.34-12.72-28.34-28.32s12.73-28.32 28.33-28.32c15.6 0 28.33 12.72 28.33 28.32S537.5 365 521.9 365zm-6.95-14.76c2.07 6.96 4.96 10.44 6.94 10.44 1.98 0 5.23-3.12 6.94-10.44-2.34-.24-4.7-.48-6.95-.48-2.26 0-4.6.24-6.95.48zm-10.38 2.64c2.62 2.88 5.78 4.92 9.2 6.12-1.44-2.4-2.25-4.92-3.15-8.16-2.26.6-4.33 1.2-6.05 2.04zm28.87-2.04c-.8 3.24-1.98 5.88-3.15 8.16 3.4-1.2 6.66-3.48 9.2-6.36-1.73-.6-3.7-1.2-6.06-1.8zm-35.27-12.12c.27 3.72 1.44 6.96 3.5 10.44 2.27-1.2 4.9-2.04 7.77-2.64-.54-2.64-.54-5.16-.8-7.8h-10.47zm36.18 8.16c2.88.48 5.86 1.32 7.84 2.52 1.98-3.48 3.15-6.6 3.42-10.44h-10.64c.27 2.64-.1 5.04-.63 7.92zm-21.12-8.16c0 2.28.27 4.68.63 6.96 2.62-.24 5.5-.6 8.12-.6 2.62 0 5.15.24 8.12.6.28-2.28.55-4.68.55-6.96h-17.42zm32.66-4.56c-.28-4.08-1.72-7.8-4.07-11.28-2.25 1.2-4.87 2.04-7.48 2.64.54 2.52.8 5.52.8 8.64h10.74zm-15.07 0c0-2.64-.27-5.52-.82-7.8-2.6.24-5.22.6-7.83.6-2.62 0-5.24-.36-7.76-.6-.63 2.28-.9 5.16-.9 7.8h17.33zm-21.93 0c0-2.88.27-5.88.8-8.64-2.87-.6-5.22-1.44-7.47-2.64-2.35 3.48-3.8 7.2-4.34 11.28h11zm6.4-11.88c2.26.24 4.6.6 6.87.6 2.34 0 4.7-.36 6.94-.6-1.97-6.72-4.86-9.6-6.93-9.6-2.26 0-5.15 3-6.86 9.6zm-10.2-2.64c1.73.6 3.8 1.44 5.88 1.68.8-2.88 1.7-5.16 3.15-7.2-3.5 1.2-6.4 2.88-9.02 5.52zm25.2-5.52c1.16 2.04 2.24 4.68 3.14 7.2 2.08-.48 4.06-1.08 5.87-1.68-2.97-2.64-5.86-4.32-9-5.52z" stroke="#000" stroke-opacity="0" fill="#00188f"/><path d="M488.96 335c.63-16.2 13-29.52 28.96-31.56v-52.56c0-3.24-2.6-5.88-5.86-5.88h-46.2c-3.24 0-5.86 2.64-5.86 5.88v112.68h43.4c-4.33-2.88-7.85-6.84-10.47-11.52h-24.27v-5.88h21.66c-.55-1.68-.82-3.72-1.18-5.76h-20.48v-5.76h20.2v.24h.1v.12zm-20.2-72.36h40.4v5.88h-40.4v-5.88z" stroke="#000" stroke-opacity="0" fill="#00188f"/><use xlink:href="#p" transform="matrix(1,0,0,1,430,374) translate(61 14.4)"/><path d="M441.5 306H241v-2h200.5z" fill="#5e5e5e"/><path d="M241.03 306H240v-2h1.03zM456.76 305l-14.26 4.64v-9.28z" fill="#5e5e5e"/><path d="M460 305l-18.5 6v-12zm-16.5 3.26l10.03-3.26-10.03-3.26z" fill="#5e5e5e"/><use xlink:href="#q" transform="matrix(1,0,0,1,275.01234567901236,279.66666666666663) translate(0 14.222222222222223)"/><use xlink:href="#r" transform="matrix(1,0,0,1,275.01234567901236,279.66666666666663) translate(20.69135802469136 14.222222222222223)"/><use xlink:href="#g" transform="matrix(1,0,0,1,275.01234567901236,279.66666666666663) translate(73.97530864197532 14.222222222222223)"/><path d="M280 345.48h-21.5v-2H280zm179 0h-39v-2h39z" fill="#5e5e5e"/><path d="M460 345.48h-1.03v-2H460zM257.5 349.1l-14.26-4.62 14.26-4.64z" fill="#5e5e5e"/><path d="M258.5 350.5l-18.5-6.02 18.5-6zm-12.03-6.02l10.03 3.26v-6.52z" fill="#5e5e5e"/><use xlink:href="#s" transform="matrix(1,0,0,1,280,323.14396783066843) translate(0.0049999999999954525 14.222222222222223)"/><use xlink:href="#t" transform="matrix(1,0,0,1,280,323.14396783066843) translate(20.696358024691357 14.222222222222223)"/><use xlink:href="#u" transform="matrix(1,0,0,1,280,323.14396783066843) translate(110.37537037037038 14.222222222222223)"/><use xlink:href="#v" transform="matrix(1,0,0,1,280,323.14396783066843) translate(41.93092592592592 35.55555555555556)"/><path d="M959.04 479.38H537.38c-3.3 0-6-2.7-6-6v-91.53" stroke="#5e5e5e" stroke-width="2" fill="none"/><path d="M960.04 480.38h-1.02v-2h1.02z" fill="#5e5e5e"/><path d="M531.38 366.58l4.64 14.27h-9.27z" stroke="#5e5e5e" stroke-width="2" fill="#5e5e5e"/><use xlink:href="#w" transform="matrix(1,0,0,1,533.6346985853104,483.37785351562354) translate(0 14.222222222222223)"/><use xlink:href="#j" transform="matrix(1,0,0,1,533.6346985853104,483.37785351562354) translate(20.69135802469136 14.222222222222223)"/><use xlink:href="#x" transform="matrix(1,0,0,1,533.6346985853104,483.37785351562354) translate(68.98765432098767 14.222222222222223)"/><use xlink:href="#k" transform="matrix(1,0,0,1,533.6346985853104,483.37785351562354) translate(177.77777777777777 14.222222222222223)"/><use xlink:href="#l" transform="matrix(1,0,0,1,533.6346985853104,483.37785351562354) translate(258.71604938271605 14.222222222222223)"/><use xlink:href="#m" transform="matrix(1,0,0,1,533.6346985853104,483.37785351562354) translate(280.34567901234567 14.222222222222223)"/><path d="M1704.4 412.77h-223.74c-3.3 0-6 2.7-6 6v53.74c0 3.33-2.68 6-6 6h-206.23" stroke="#5e5e5e" stroke-width="2" fill="none"/><path d="M1705.4 413.46l.07.3h-1.1v-2h1.03z" fill="#5e5e5e"/><path d="M1247.17 478.5l14.26-4.62v9.27z" stroke="#5e5e5e" stroke-width="2" fill="#5e5e5e"/><use xlink:href="#y" transform="matrix(1,0,0,1,1482.664793141384,450.17606392401814) translate(0 14.222222222222223)"/><use xlink:href="#e" transform="matrix(1,0,0,1,1482.664793141384,450.17606392401814) translate(20.69135802469136 14.222222222222223)"/><use xlink:href="#x" transform="matrix(1,0,0,1,1482.664793141384,450.17606392401814) translate(68.98765432098767 14.222222222222223)"/><use xlink:href="#g" transform="matrix(1,0,0,1,1482.664793141384,450.17606392401814) translate(177.77777777777777 14.222222222222223)"/><path d="M800 20h120v120H800V20z" stroke="#fff" stroke-opacity="0" stroke-width="2" fill="#3b48cc"/><path d="M864.1 102H862c-.87 0-1.58-.7-1.58-1.6V64.8c0-.9.7-1.6 1.58-1.6h18.9c.5 0 .9.2 1.2.54l4.8 5.78-2.25 2.06-4.45-5.2h-16.66v32.55h.56z" stroke="#fff" stroke-opacity="0" stroke-width="2" fill="#fff"/><path d="M893.3 107.8h-25.85c-.87 0-1.6-.7-1.6-1.6V70.58c0-.9.73-1.6 1.6-1.6h19.95c.43 0 .78.17 1.1.48l5.9 5.97c.3.3.45.66.45 1.1v29.7c-.03.86-.7 1.52-1.54 1.56zm-24.3-3h22.77V77.14l-5-5h-17.78z" stroke="#fff" stroke-opacity="0" stroke-width="2" fill="#fff"/><path d="M893.3 79.65h-7.5c-.87 0-1.6-.72-1.6-1.6v-7.52h3.08v5.96h5.97zM879 99.44h-1c-.82.02-1.52-.3-2.05-.92-.66-.98-.87-2.05-.66-3.22-.1-2.84-1.7-3.3-1.7-3.3-.82-.3-1.24-1.24-.93-2.06.17-.45.48-.76.93-.94.14 0 1.6-.6 1.6-3.4 0-1.68.78-3.55 2.66-3.62h1.05v3.1h-.5c-.02.17-.02.34 0 .52.1 1.87-.4 3.5-1.6 4.92 1.2 1.45 1.7 3.06 1.6 4.92.02.1.02.2 0 .28-.02.25-.02.46 0 .7h.7zM883.3 99.44v-3.07h.6c.02-.2.02-.33 0-.52-.1-1.86.42-3.48 1.6-4.92-1.18-1.44-1.7-3.06-1.6-4.92v-.27c.03-.24.03-.44 0-.68h-.68v-3.08h1c.82-.02 1.52.3 2.05.93.66.98.87 2.04.66 3.2 0 2.7 1.6 3.2 1.6 3.3.7.22 1.14.86 1.1 1.6 0 .7-.45 1.28-1.13 1.45-.13 0-1.6.6-1.6 3.42 0 1.68-.8 3.55-2.66 3.6zM851.57 63.52c-12.8 0-26.42-3.94-26.42-11.2s13.58-11.2 26.42-11.2c12.84 0 26.4 3.94 26.4 11.2s-13.62 11.2-26.4 11.2zm0-19.4c-13.74 0-23.35 4.3-23.35 8.18 0 3.85 9.6 8.13 23.35 8.13 13.73 0 23.35-4.28 23.35-8.13 0-3.88-9.62-8.18-23.35-8.18z" stroke="#fff" stroke-opacity="0" stroke-width="2" fill="#fff"/><path d="M874.9 52.3h3.07v9.68h-3.07v-9.7zM851.57 118.94c-12.8 0-26.42-3.93-26.42-11.2V52.3h3.07v55.38c0 3.87 9.6 8.2 23.35 8.2 13.73 0 23.35-4.33 23.35-8.2h3.06c0 7.33-13.63 11.26-26.4 11.26z" stroke="#fff" stroke-opacity="0" stroke-width="2" fill="#fff"/><path d="M851.6 82.9c-15 0-26.34-4.8-26.34-11.2h3.1c0 3.85 9.6 8.16 23.25 8.16 2.46 0 4.5-.12 6.93-.4l.33 3.06c-2.55.28-4.7.4-7.25.38zM851.63 101.94c-15.05 0-26.37-4.8-26.37-11.2h3.1c0 3.85 9.6 8.15 23.27 8.15 2.42 0 4.46-.12 6.88-.4l.35 3.1c-2.52.26-4.7.35-7.22.34z" stroke="#fff" stroke-opacity="0" stroke-width="2" fill="#fff"/><g><use xlink:href="#z" transform="matrix(1,0,0,1,770,149) translate(40.67901234567901 17.77777777777778)"/></g><path d="M505.4 244h-2V101.33h2zM781.5 81h-57.18v-2h57.18z" fill="#5e5e5e"/><path d="M505.4 245h-2v-1.03h2zM796.76 80l-14.26 4.64v-9.28z" fill="#5e5e5e"/><path d="M800 80l-18.5 6V74zm-16.5 3.26L793.53 80l-10.03-3.26z" fill="#5e5e5e"/><g><use xlink:href="#A" transform="matrix(1,0,0,1,475.58052735066616,58.666666666666664) translate(0 14.222222222222223)"/><use xlink:href="#B" transform="matrix(1,0,0,1,475.58052735066616,58.666666666666664) translate(20.69135802469136 14.222222222222223)"/><use xlink:href="#C" transform="matrix(1,0,0,1,475.58052735066616,58.666666666666664) translate(84.83950617283952 14.222222222222223)"/><use xlink:href="#D" transform="matrix(1,0,0,1,475.58052735066616,58.666666666666664) translate(0 35.55555555555556)"/><use xlink:href="#E" transform="matrix(1,0,0,1,475.58052735066616,58.666666666666664) translate(37.48148148148149 35.55555555555556)"/><use xlink:href="#F" transform="matrix(1,0,0,1,475.58052735066616,58.666666666666664) translate(48.296296296296305 35.55555555555556)"/><use xlink:href="#G" transform="matrix(1,0,0,1,475.58052735066616,58.666666666666664) translate(84.74074074074076 35.55555555555556)"/><use xlink:href="#H" transform="matrix(1,0,0,1,475.58052735066616,58.666666666666664) translate(95.55555555555557 35.55555555555556)"/><use xlink:href="#I" transform="matrix(1,0,0,1,475.58052735066616,58.666666666666664) translate(158.56790123456793 35.55555555555556)"/><use xlink:href="#J" transform="matrix(1,0,0,1,475.58052735066616,58.666666666666664) translate(241.8271604938272 35.55555555555556)"/></g><path d="M1763.2 79.92l2.52 2.53.92 3.42v235.5h-2V86.12l-.7-2.64-1.8-1.8-2.63-.7h-243.6v-2h243.87zM938.5 81v-2h247.88v2z" fill="#5e5e5e"/><path d="M1766.64 322.36h-2v-1.02h2zM937.5 84.64L923.24 80l14.26-4.64z" fill="#5e5e5e"/><path d="M938.5 86L920 80l18.5-6zm-12.03-6l10.03 3.26v-6.52z" fill="#5e5e5e"/><g><use xlink:href="#K" transform="matrix(1,0,0,1,1186.3758546404135,58.666666666666664) translate(0 14.222222222222223)"/><use xlink:href="#L" transform="matrix(1,0,0,1,1186.3758546404135,58.666666666666664) translate(20.69135802469136 14.222222222222223)"/><use xlink:href="#C" transform="matrix(1,0,0,1,1186.3758546404135,58.666666666666664) translate(85.67901234567901 14.222222222222223)"/><use xlink:href="#D" transform="matrix(1,0,0,1,1186.3758546404135,58.666666666666664) translate(0 35.55555555555556)"/><use xlink:href="#E" transform="matrix(1,0,0,1,1186.3758546404135,58.666666666666664) translate(37.48148148148149 35.55555555555556)"/><use xlink:href="#M" transform="matrix(1,0,0,1,1186.3758546404135,58.666666666666664) translate(48.296296296296305 35.55555555555556)"/><use xlink:href="#H" transform="matrix(1,0,0,1,1186.3758546404135,58.666666666666664) translate(90.61728395061729 35.55555555555556)"/><use xlink:href="#N" transform="matrix(1,0,0,1,1186.3758546404135,58.666666666666664) translate(153.62962962962965 35.55555555555556)"/><use xlink:href="#G" transform="matrix(1,0,0,1,1186.3758546404135,58.666666666666664) translate(258.5679012345679 35.55555555555556)"/><use xlink:href="#O" transform="matrix(1,0,0,1,1186.3758546404135,58.666666666666664) translate(269.38271604938274 35.55555555555556)"/><use xlink:href="#J" transform="matrix(1,0,0,1,1186.3758546404135,58.666666666666664) translate(322.6172839506173 35.55555555555556)"/></g><path d="M464.15 444.13l-.92 3.42-2.53 2.53-3.42.92h-219l-3.43-.92-2.53-2.53-.92-3.42v-52.3h2v52.04l.7 2.64 1.8 1.8 2.63.7h218.5l2.63-.7 1.77-1.8.72-2.63v-61.8h2zM467.78 381.06h-9.27l4.65-14.26z" fill="#5e5e5e"/><path d="M469.16 382.06h-12.02l6-18.5zm-9.27-2h6.5l-3.25-10.03zM237.03 390.84h-9.27l4.64-14.26z" fill="#5e5e5e"/><path d="M238.4 391.84h-12l6-18.5zm-9.26-2h6.52l-3.26-10.03z" fill="#5e5e5e"/><g><use xlink:href="#P" transform="matrix(1,0,0,1,260.2686729395685,454) translate(13.609938271604918 14.222222222222223)"/><use xlink:href="#Q" transform="matrix(1,0,0,1,260.2686729395685,454) translate(70.74574074074073 14.222222222222223)"/><use xlink:href="#R" transform="matrix(1,0,0,1,260.2686729395685,454) translate(92.37537037037036 14.222222222222223)"/><use xlink:href="#S" transform="matrix(1,0,0,1,260.2686729395685,454) translate(0.0049999999999954525 35.55555555555556)"/><use xlink:href="#T" transform="matrix(1,0,0,1,260.2686729395685,454) translate(108.7951234567901 35.55555555555556)"/><use xlink:href="#U" transform="matrix(1,0,0,1,260.2686729395685,454) translate(41.165493827160475 56.88888888888889)"/></g><defs><path fill="#333" d="M266 0h-40l-56-210L115 0H75L2-248h35L96-30l15-64 43-154h32l59 218 59-218h35" id="V"/><path fill="#333" d="M100-194c63 0 86 42 84 106H49c0 40 14 67 53 68 26 1 43-12 49-29l28 8c-11 28-37 45-77 45C44 4 14-33 15-96c1-61 26-98 85-98zm52 81c6-60-76-77-97-28-3 7-6 17-6 28h103" id="W"/><path fill="#333" d="M115-194c53 0 69 39 70 98 0 66-23 100-70 100C84 3 66-7 56-30L54 0H23l1-261h32v101c10-23 28-34 59-34zm-8 174c40 0 45-34 45-75 0-40-5-75-45-74-42 0-51 32-51 76 0 43 10 73 51 73" id="X"/><g id="a"><use transform="matrix(0.06172839506172839,0,0,0.06172839506172839,0,0)" xlink:href="#V"/><use transform="matrix(0.06172839506172839,0,0,0.06172839506172839,20.493827160493826,0)" xlink:href="#W"/><use transform="matrix(0.06172839506172839,0,0,0.06172839506172839,32.839506172839506,0)" xlink:href="#X"/></g><path fill="#333" d="M96-169c-40 0-48 33-48 73s9 75 48 75c24 0 41-14 43-38l32 2c-6 37-31 61-74 61-59 0-76-41-82-99-10-93 101-131 147-64 4 7 5 14 7 22l-32 3c-4-21-16-35-41-35" id="Y"/><path fill="#333" d="M24 0v-261h32V0H24" id="Z"/><path fill="#333" d="M24-231v-30h32v30H24zM24 0v-190h32V0H24" id="aa"/><path fill="#333" d="M117-194c89-4 53 116 60 194h-32v-121c0-31-8-49-39-48C34-167 62-67 57 0H25l-1-190h30c1 10-1 24 2 32 11-22 29-35 61-36" id="ab"/><path fill="#333" d="M59-47c-2 24 18 29 38 22v24C64 9 27 4 27-40v-127H5v-23h24l9-43h21v43h35v23H59v120" id="ac"/><g id="b"><use transform="matrix(0.06172839506172839,0,0,0.06172839506172839,0,0)" xlink:href="#Y"/><use transform="matrix(0.06172839506172839,0,0,0.06172839506172839,11.11111111111111,0)" xlink:href="#Z"/><use transform="matrix(0.06172839506172839,0,0,0.06172839506172839,15.987654320987653,0)" xlink:href="#aa"/><use transform="matrix(0.06172839506172839,0,0,0.06172839506172839,20.864197530864196,0)" xlink:href="#W"/><use transform="matrix(0.06172839506172839,0,0,0.06172839506172839,33.20987654320987,0)" xlink:href="#ab"/><use transform="matrix(0.06172839506172839,0,0,0.06172839506172839,45.55555555555555,0)" xlink:href="#ac"/></g><path d="M109-170H84l-4-78h32zm-65 0H19l-4-78h33" id="ad"/><path d="M24-231v-30h32v30H24zM-9 49c24 4 33-6 33-30v-209h32V24c2 40-23 58-65 49V49" id="ae"/><path d="M100-194c62-1 85 37 85 99 1 63-27 99-86 99S16-35 15-95c0-66 28-99 85-99zM99-20c44 1 53-31 53-75 0-43-8-75-51-75s-53 32-53 75 10 74 51 75" id="af"/><path d="M115-194c53 0 69 39 70 98 0 66-23 100-70 100C84 3 66-7 56-30L54 0H23l1-261h32v101c10-23 28-34 59-34zm-8 174c40 0 45-34 45-75 0-40-5-75-45-74-42 0-51 32-51 76 0 43 10 73 51 73" id="ag"/><path d="M135-143c-3-34-86-38-87 0 15 53 115 12 119 90S17 21 10-45l28-5c4 36 97 45 98 0-10-56-113-15-118-90-4-57 82-63 122-42 12 7 21 19 24 35" id="ah"/><g id="c"><use transform="matrix(0.05,0,0,0.05,0,0)" xlink:href="#ad"/><use transform="matrix(0.05,0,0,0.05,6.3500000000000005,0)" xlink:href="#ae"/><use transform="matrix(0.05,0,0,0.05,10.3,0)" xlink:href="#af"/><use transform="matrix(0.05,0,0,0.05,20.3,0)" xlink:href="#ag"/><use transform="matrix(0.05,0,0,0.05,30.3,0)" xlink:href="#ah"/><use transform="matrix(0.05,0,0,0.05,39.3,0)" xlink:href="#ad"/></g><path fill="#333" d="M128-127c34 4 56 21 59 58 7 91-148 94-172 28-4-9-6-17-7-26l51-5c1 24 16 35 40 36 23 0 39-12 38-36-1-31-31-36-65-34v-40c32 2 59-3 59-33 0-20-13-33-34-33s-33 13-35 32l-50-3c6-44 37-68 86-68 50 0 83 20 83 66 0 35-22 52-53 58" id="ai"/><path fill="#333" d="M14-72v-43h91v43H14" id="aj"/><g id="d"><use transform="matrix(0.04938271604938272,0,0,0.04938271604938272,0,0)" xlink:href="#ai"/><use transform="matrix(0.04938271604938272,0,0,0.04938271604938272,9.876543209876544,0)" xlink:href="#aj"/></g><path fill="#333" d="M169-182c-1-43-94-46-97-3 18 66 151 10 154 114 3 95-165 93-204 36-6-8-10-19-12-30l50-8c3 46 112 56 116 5-17-69-150-10-154-114-4-87 153-88 188-35 5 8 8 18 10 28" id="ak"/><path fill="#333" d="M185-48c-13 30-37 53-82 52C43 2 14-33 14-96s30-98 90-98c62 0 83 45 84 108H66c0 31 8 55 39 56 18 0 30-7 34-22zm-45-69c5-46-57-63-70-21-2 6-4 13-4 21h74" id="al"/><path fill="#333" d="M135-194c87-1 58 113 63 194h-50c-7-57 23-157-34-157-59 0-34 97-39 157H25l-1-190h47c2 12-1 28 3 38 12-26 28-41 61-42" id="am"/><path fill="#333" d="M88-194c31-1 46 15 58 34l-1-101h50l1 261h-48c-2-10 0-23-3-31C134-8 116 4 84 4 32 4 16-41 15-95c0-56 19-97 73-99zm17 164c33 0 40-30 41-66 1-37-9-64-41-64s-38 30-39 65c0 43 13 65 39 65" id="an"/><g id="e"><use transform="matrix(0.04938271604938272,0,0,0.04938271604938272,0,0)" xlink:href="#ak"/><use transform="matrix(0.04938271604938272,0,0,0.04938271604938272,11.851851851851853,0)" xlink:href="#al"/><use transform="matrix(0.04938271604938272,0,0,0.04938271604938272,21.7283950617284,0)" xlink:href="#am"/><use transform="matrix(0.04938271604938272,0,0,0.04938271604938272,32.543209876543216,0)" xlink:href="#an"/></g><path fill="#333" d="M62-158H24l-5-90h48" id="ao"/><path fill="#333" d="M25-224v-37h50v37H25zM75 22c2 45-34 59-81 51V38c22 5 31-5 31-27v-201h50V22" id="ap"/><path fill="#333" d="M110-194c64 0 96 36 96 99 0 64-35 99-97 99-61 0-95-36-95-99 0-62 34-99 96-99zm-1 164c35 0 45-28 45-65 0-40-10-65-43-65-34 0-45 26-45 65 0 36 10 65 43 65" id="aq"/><path fill="#333" d="M135-194c52 0 70 43 70 98 0 56-19 99-73 100-30 1-46-15-58-35L72 0H24l1-261h50v104c11-23 29-37 60-37zM114-30c31 0 40-27 40-66 0-37-7-63-39-63s-41 28-41 65c0 36 8 64 40 64" id="ar"/><g id="f"><use transform="matrix(0.04938271604938272,0,0,0.04938271604938272,0,0)" xlink:href="#ao"/><use transform="matrix(0.04938271604938272,0,0,0.04938271604938272,4.197530864197531,0)" xlink:href="#ap"/><use transform="matrix(0.04938271604938272,0,0,0.04938271604938272,9.135802469135804,0)" xlink:href="#aq"/><use transform="matrix(0.04938271604938272,0,0,0.04938271604938272,19.95061728395062,0)" xlink:href="#ar"/><use transform="matrix(0.04938271604938272,0,0,0.04938271604938272,30.765432098765434,0)" xlink:href="#ao"/></g><path fill="#333" d="M220-157c-53 9-28 100-34 157h-49v-107c1-27-5-49-29-50C55-147 81-57 75 0H25l-1-190h47c2 12-1 28 3 38 10-53 101-56 108 0 13-22 24-43 59-42 82 1 51 116 57 194h-49v-107c-1-25-5-48-29-50" id="as"/><path fill="#333" d="M137-138c1-29-70-34-71-4 15 46 118 7 119 86 1 83-164 76-172 9l43-7c4 19 20 25 44 25 33 8 57-30 24-41C81-84 22-81 20-136c-2-80 154-74 161-7" id="at"/><path fill="#333" d="M133-34C117-15 103 5 69 4 32 3 11-16 11-54c-1-60 55-63 116-61 1-26-3-47-28-47-18 1-26 9-28 27l-52-2c7-38 36-58 82-57s74 22 75 68l1 82c-1 14 12 18 25 15v27c-30 8-71 5-69-32zm-48 3c29 0 43-24 42-57-32 0-66-3-65 30 0 17 8 27 23 27" id="au"/><path fill="#333" d="M195-6C206 82 75 100 31 46c-4-6-6-13-8-21l49-6c3 16 16 24 34 25 40 0 42-37 40-79-11 22-30 35-61 35-53 0-70-43-70-97 0-56 18-96 73-97 30 0 46 14 59 34l2-30h47zm-90-29c32 0 41-27 41-63 0-35-9-62-40-62-32 0-39 29-40 63 0 36 9 62 39 62" id="av"/><g id="g"><use transform="matrix(0.04938271604938272,0,0,0.04938271604938272,0,0)" xlink:href="#as"/><use transform="matrix(0.04938271604938272,0,0,0.04938271604938272,15.80246913580247,0)" xlink:href="#al"/><use transform="matrix(0.04938271604938272,0,0,0.04938271604938272,25.679012345679016,0)" xlink:href="#at"/><use transform="matrix(0.04938271604938272,0,0,0.04938271604938272,35.55555555555556,0)" xlink:href="#at"/><use transform="matrix(0.04938271604938272,0,0,0.04938271604938272,45.4320987654321,0)" xlink:href="#au"/><use transform="matrix(0.04938271604938272,0,0,0.04938271604938272,55.308641975308646,0)" xlink:href="#av"/><use transform="matrix(0.04938271604938272,0,0,0.04938271604938272,66.12345679012346,0)" xlink:href="#al"/></g><path d="M266 0h-40l-56-210L115 0H75L2-248h35L96-30l15-64 43-154h32l59 218 59-218h35" id="aw"/><path d="M114-163C36-179 61-72 57 0H25l-1-190h30c1 12-1 29 2 39 6-27 23-49 58-41v29" id="ax"/><path d="M143 0L79-87 56-68V0H24v-261h32v163l83-92h37l-77 82L181 0h-38" id="ay"/><path d="M100-194c63 0 86 42 84 106H49c0 40 14 67 53 68 26 1 43-12 49-29l28 8c-11 28-37 45-77 45C44 4 14-33 15-96c1-61 26-98 85-98zm52 81c6-60-76-77-97-28-3 7-6 17-6 28h103" id="az"/><g id="h"><use transform="matrix(0.05,0,0,0.05,0,0)" xlink:href="#aw"/><use transform="matrix(0.05,0,0,0.05,16.599999999999998,0)" xlink:href="#af"/><use transform="matrix(0.05,0,0,0.05,26.599999999999994,0)" xlink:href="#ax"/><use transform="matrix(0.05,0,0,0.05,32.55,0)" xlink:href="#ay"/><use transform="matrix(0.05,0,0,0.05,41.55,0)" xlink:href="#az"/><use transform="matrix(0.05,0,0,0.05,51.54999999999999,0)" xlink:href="#ax"/></g><path fill="#333" d="M139-81c0-46-55-55-73-27H18l9-140h149v37H72l-4 63c44-38 133-4 122 66C201 21 21 35 11-62l49-4c5 18 15 30 39 30 26 0 40-18 40-45" id="aA"/><g id="i"><use transform="matrix(0.04938271604938272,0,0,0.04938271604938272,0,0)" xlink:href="#aA"/><use transform="matrix(0.04938271604938272,0,0,0.04938271604938272,9.876543209876544,0)" xlink:href="#aj"/></g><path fill="#333" d="M24-248c93 1 206-16 204 79-1 75-69 88-152 82V0H24v-248zm52 121c47 0 100 7 100-41 0-47-54-39-100-39v80" id="aB"/><path fill="#333" d="M85 4C-2 5 27-109 22-190h50c7 57-23 150 33 157 60-5 35-97 40-157h50l1 190h-47c-2-12 1-28-3-38-12 25-28 42-61 42" id="aC"/><path fill="#333" d="M114-157C55-157 80-60 75 0H25v-261h50l-1 109c12-26 28-41 61-42 86-1 58 113 63 194h-50c-7-57 23-157-34-157" id="aD"/><g id="j"><use transform="matrix(0.04938271604938272,0,0,0.04938271604938272,0,0)" xlink:href="#aB"/><use transform="matrix(0.04938271604938272,0,0,0.04938271604938272,11.851851851851853,0)" xlink:href="#aC"/><use transform="matrix(0.04938271604938272,0,0,0.04938271604938272,22.666666666666668,0)" xlink:href="#at"/><use transform="matrix(0.04938271604938272,0,0,0.04938271604938272,32.543209876543216,0)" xlink:href="#aD"/></g><g id="k"><use transform="matrix(0.04938271604938272,0,0,0.04938271604938272,0,0)" xlink:href="#as"/><use transform="matrix(0.04938271604938272,0,0,0.04938271604938272,15.80246913580247,0)" xlink:href="#al"/><use transform="matrix(0.04938271604938272,0,0,0.04938271604938272,25.679012345679016,0)" xlink:href="#at"/><use transform="matrix(0.04938271604938272,0,0,0.04938271604938272,35.55555555555556,0)" xlink:href="#at"/><use transform="matrix(0.04938271604938272,0,0,0.04938271604938272,45.4320987654321,0)" xlink:href="#au"/><use transform="matrix(0.04938271604938272,0,0,0.04938271604938272,55.308641975308646,0)" xlink:href="#av"/><use transform="matrix(0.04938271604938272,0,0,0.04938271604938272,66.12345679012346,0)" xlink:href="#al"/></g><path fill="#333" d="M115-3C79 11 28 4 28-45v-112H4v-33h27l15-45h31v45h36v33H77v99c-1 23 16 31 38 25v30" id="aE"/><g id="l"><use transform="matrix(0.04938271604938272,0,0,0.04938271604938272,0,0)" xlink:href="#aE"/><use transform="matrix(0.04938271604938272,0,0,0.04938271604938272,5.8765432098765435,0)" xlink:href="#aq"/></g><path fill="#333" d="M190-63c-7 42-38 67-86 67-59 0-84-38-90-98-12-110 154-137 174-36l-49 2c-2-19-15-32-35-32-30 0-35 28-38 64-6 74 65 87 74 30" id="aF"/><path fill="#333" d="M135-150c-39-12-60 13-60 57V0H25l-1-190h47c2 13-1 29 3 40 6-28 27-53 61-41v41" id="aG"/><g id="m"><use transform="matrix(0.04938271604938272,0,0,0.04938271604938272,0,0)" xlink:href="#aF"/><use transform="matrix(0.04938271604938272,0,0,0.04938271604938272,9.876543209876544,0)" xlink:href="#aq"/><use transform="matrix(0.04938271604938272,0,0,0.04938271604938272,20.69135802469136,0)" xlink:href="#am"/><use transform="matrix(0.04938271604938272,0,0,0.04938271604938272,31.506172839506174,0)" xlink:href="#at"/><use transform="matrix(0.04938271604938272,0,0,0.04938271604938272,41.38271604938272,0)" xlink:href="#aC"/><use transform="matrix(0.04938271604938272,0,0,0.04938271604938272,52.19753086419754,0)" xlink:href="#as"/><use transform="matrix(0.04938271604938272,0,0,0.04938271604938272,68.00000000000001,0)" xlink:href="#al"/><use transform="matrix(0.04938271604938272,0,0,0.04938271604938272,77.87654320987656,0)" xlink:href="#aG"/></g><path d="M117-194c89-4 53 116 60 194h-32v-121c0-31-8-49-39-48C34-167 62-67 57 0H25l-1-190h30c1 10-1 24 2 32 11-22 29-35 61-36" id="aH"/><path d="M59-47c-2 24 18 29 38 22v24C64 9 27 4 27-40v-127H5v-23h24l9-43h21v43h35v23H59v120" id="aI"/><path d="M24-231v-30h32v30H24zM24 0v-190h32V0H24" id="aJ"/><path d="M101-234c-31-9-42 10-38 44h38v23H63V0H32v-167H5v-23h27c-7-52 17-82 69-68v24" id="aK"/><path d="M96-169c-40 0-48 33-48 73s9 75 48 75c24 0 41-14 43-38l32 2c-6 37-31 61-74 61-59 0-76-41-82-99-10-93 101-131 147-64 4 7 5 14 7 22l-32 3c-4-21-16-35-41-35" id="aL"/><path d="M141-36C126-15 110 5 73 4 37 3 15-17 15-53c-1-64 63-63 125-63 3-35-9-54-41-54-24 1-41 7-42 31l-33-3c5-37 33-52 76-52 45 0 72 20 72 64v82c-1 20 7 32 28 27v20c-31 9-61-2-59-35zM48-53c0 20 12 33 32 33 41-3 63-29 60-74-43 2-92-5-92 41" id="aM"/><g id="n"><use transform="matrix(0.05,0,0,0.05,0,0)" xlink:href="#ad"/><use transform="matrix(0.05,0,0,0.05,6.3500000000000005,0)" xlink:href="#aH"/><use transform="matrix(0.05,0,0,0.05,16.35,0)" xlink:href="#af"/><use transform="matrix(0.05,0,0,0.05,26.35,0)" xlink:href="#aI"/><use transform="matrix(0.05,0,0,0.05,31.35,0)" xlink:href="#aJ"/><use transform="matrix(0.05,0,0,0.05,35.300000000000004,0)" xlink:href="#aK"/><use transform="matrix(0.05,0,0,0.05,40.300000000000004,0)" xlink:href="#aJ"/><use transform="matrix(0.05,0,0,0.05,44.25000000000001,0)" xlink:href="#aL"/><use transform="matrix(0.05,0,0,0.05,53.25,0)" xlink:href="#aM"/><use transform="matrix(0.05,0,0,0.05,63.25,0)" xlink:href="#aI"/><use transform="matrix(0.05,0,0,0.05,68.25,0)" xlink:href="#aJ"/><use transform="matrix(0.05,0,0,0.05,72.2,0)" xlink:href="#af"/><use transform="matrix(0.05,0,0,0.05,82.2,0)" xlink:href="#aH"/><use transform="matrix(0.05,0,0,0.05,92.2,0)" xlink:href="#ad"/></g><path fill="#333" d="M240-174c0 40-23 61-54 70L253 0h-59l-57-94H76V0H24v-248c93 4 217-23 216 74zM76-134c48-2 112 12 112-38 0-48-66-32-112-35v73" id="aN"/><path fill="#333" d="M25-224v-37h50v37H25zM25 0v-190h50V0H25" id="aO"/><path fill="#333" d="M230 0l2-204L168 0h-37L68-204 70 0H24v-248h70l56 185 57-185h69V0h-46" id="aP"/><path fill="#333" d="M140-251c80 0 125 45 125 126 0 70-33 111-92 124 6 28 34 38 68 31l-1 36C177 83 129 55 120 2 51-6 15-50 15-125c0-81 44-126 125-126zm-1 214c52 0 73-35 73-88 0-50-21-86-72-86-52 0-73 35-73 86s22 88 72 88" id="aQ"/><g id="o"><use transform="matrix(0.06172839506172839,0,0,0.06172839506172839,0,0)" xlink:href="#aN"/><use transform="matrix(0.06172839506172839,0,0,0.06172839506172839,15.987654320987653,0)" xlink:href="#au"/><use transform="matrix(0.06172839506172839,0,0,0.06172839506172839,28.333333333333332,0)" xlink:href="#ar"/><use transform="matrix(0.06172839506172839,0,0,0.06172839506172839,41.85185185185185,0)" xlink:href="#ar"/><use transform="matrix(0.06172839506172839,0,0,0.06172839506172839,55.37037037037037,0)" xlink:href="#aO"/><use transform="matrix(0.06172839506172839,0,0,0.06172839506172839,61.54320987654321,0)" xlink:href="#aE"/><use transform="matrix(0.06172839506172839,0,0,0.06172839506172839,68.88888888888889,0)" xlink:href="#aP"/><use transform="matrix(0.06172839506172839,0,0,0.06172839506172839,87.34567901234567,0)" xlink:href="#aQ"/></g><path d="M205 0l-28-72H64L36 0H1l101-248h38L239 0h-34zm-38-99l-47-123c-12 45-31 82-46 123h93" id="aR"/><path d="M30-248c87 1 191-15 191 75 0 78-77 80-158 76V0H30v-248zm33 125c57 0 124 11 124-50 0-59-68-47-124-48v98" id="aS"/><path d="M33 0v-248h34V0H33" id="aT"/><g id="p"><use transform="matrix(0.05,0,0,0.05,0,0)" xlink:href="#aR"/><use transform="matrix(0.05,0,0,0.05,12,0)" xlink:href="#aS"/><use transform="matrix(0.05,0,0,0.05,24,0)" xlink:href="#aT"/></g><path fill="#333" d="M23 0v-37h61v-169l-59 37v-38l62-41h46v211h57V0H23" id="aU"/><g id="q"><use transform="matrix(0.04938271604938272,0,0,0.04938271604938272,0,0)" xlink:href="#aU"/><use transform="matrix(0.04938271604938272,0,0,0.04938271604938272,9.876543209876544,0)" xlink:href="#aj"/></g><path fill="#333" d="M140-251c80 0 125 45 125 126S219 4 139 4C58 4 15-44 15-125s44-126 125-126zm-1 214c52 0 73-35 73-88 0-50-21-86-72-86-52 0-73 35-73 86s22 88 72 88" id="aV"/><path fill="#333" d="M136-208V0H84v-208H4v-40h212v40h-80" id="aW"/><g id="r"><use transform="matrix(0.04938271604938272,0,0,0.04938271604938272,0,0)" xlink:href="#aB"/><use transform="matrix(0.04938271604938272,0,0,0.04938271604938272,11.851851851851853,0)" xlink:href="#aV"/><use transform="matrix(0.04938271604938272,0,0,0.04938271604938272,25.679012345679016,0)" xlink:href="#ak"/><use transform="matrix(0.04938271604938272,0,0,0.04938271604938272,37.53086419753087,0)" xlink:href="#aW"/></g><path fill="#333" d="M165-50V0h-47v-50H5v-38l105-160h55v161h33v37h-33zm-47-37l2-116L46-87h72" id="aX"/><g id="s"><use transform="matrix(0.04938271604938272,0,0,0.04938271604938272,0,0)" xlink:href="#aX"/><use transform="matrix(0.04938271604938272,0,0,0.04938271604938272,9.876543209876544,0)" xlink:href="#aj"/></g><path fill="#333" d="M135-194c53 0 70 44 70 98 0 56-19 98-73 100-31 1-45-17-59-34 3 33 2 69 2 105H25l-1-265h48c2 10 0 23 3 31 11-24 29-35 60-35zM114-30c33 0 39-31 40-66 0-38-9-64-40-64-56 0-55 130 0 130" id="aY"/><g id="t"><use transform="matrix(0.04938271604938272,0,0,0.04938271604938272,0,0)" xlink:href="#aN"/><use transform="matrix(0.04938271604938272,0,0,0.04938271604938272,12.790123456790125,0)" xlink:href="#al"/><use transform="matrix(0.04938271604938272,0,0,0.04938271604938272,22.66666666666667,0)" xlink:href="#at"/><use transform="matrix(0.04938271604938272,0,0,0.04938271604938272,32.543209876543216,0)" xlink:href="#aY"/><use transform="matrix(0.04938271604938272,0,0,0.04938271604938272,43.35802469135803,0)" xlink:href="#aq"/><use transform="matrix(0.04938271604938272,0,0,0.04938271604938272,54.17283950617284,0)" xlink:href="#am"/><use transform="matrix(0.04938271604938272,0,0,0.04938271604938272,64.98765432098766,0)" xlink:href="#at"/><use transform="matrix(0.04938271604938272,0,0,0.04938271604938272,74.8641975308642,0)" xlink:href="#al"/></g><path fill="#333" d="M182-182c0 78-84 86-111 141h115V0H12c-6-101 99-100 120-180 1-22-12-31-33-32-23 0-32 14-35 34l-49-3c5-45 32-70 84-70 51 0 83 22 83 69" id="aZ"/><path fill="#333" d="M101-251c68 0 84 54 84 127C185-50 166 4 99 4S15-52 14-124c-1-75 17-127 87-127zm-1 216c37-5 36-46 36-89s4-89-36-89c-39 0-36 45-36 89 0 43-3 85 36 89" id="ba"/><g id="u"><use transform="matrix(0.04938271604938272,0,0,0.04938271604938272,0,0)" xlink:href="#aZ"/><use transform="matrix(0.04938271604938272,0,0,0.04938271604938272,9.876543209876544,0)" xlink:href="#ba"/><use transform="matrix(0.04938271604938272,0,0,0.04938271604938272,19.75308641975309,0)" xlink:href="#aU"/></g><path fill="#333" d="M133 41v34c-50 4-88-6-87-53 0-46 9-101-40-98v-34c48 2 40-52 40-98-1-47 37-57 87-53v34c-79-14-6 124-77 134 73 11-4 147 77 134" id="bb"/><path fill="#333" d="M24 0v-248h52V0H24" id="bc"/><path fill="#333" d="M94-36c2 56 4 113-52 111H8V41C85 54 13-83 84-94c-39-5-38-51-36-97 1-27-12-38-40-36v-34c49-4 87 6 86 53s-8 101 41 98v34c-26 1-42 13-41 40" id="bd"/><g id="v"><use transform="matrix(0.04938271604938272,0,0,0.04938271604938272,0,0)" xlink:href="#bb"/><use transform="matrix(0.04938271604938272,0,0,0.04938271604938272,6.913580246913581,0)" xlink:href="#ap"/><use transform="matrix(0.04938271604938272,0,0,0.04938271604938272,11.851851851851853,0)" xlink:href="#aq"/><use transform="matrix(0.04938271604938272,0,0,0.04938271604938272,22.666666666666668,0)" xlink:href="#ar"/><use transform="matrix(0.04938271604938272,0,0,0.04938271604938272,33.48148148148148,0)" xlink:href="#bc"/><use transform="matrix(0.04938271604938272,0,0,0.04938271604938272,38.41975308641975,0)" xlink:href="#an"/><use transform="matrix(0.04938271604938272,0,0,0.04938271604938272,49.23456790123457,0)" xlink:href="#bd"/></g><path fill="#333" d="M138-131c27 9 52 24 51 61 0 53-36 74-89 74S11-19 11-69c0-35 22-54 51-61-78-25-46-121 38-121 51 0 83 19 83 66 0 30-18 49-45 54zm-38-16c24 0 32-13 32-36 1-23-11-34-32-34-22 0-33 12-32 34 0 22 9 36 32 36zm1 116c27 0 37-17 37-43 0-25-13-39-39-39-24 0-37 15-37 40 0 27 11 42 39 42" id="be"/><g id="w"><use transform="matrix(0.04938271604938272,0,0,0.04938271604938272,0,0)" xlink:href="#be"/><use transform="matrix(0.04938271604938272,0,0,0.04938271604938272,9.876543209876544,0)" xlink:href="#aj"/></g><path fill="#333" d="M121-226c-27-7-43 5-38 36h38v33H83V0H34v-157H6v-33h28c-9-59 32-81 87-68v32" id="bf"/><g id="x"><use transform="matrix(0.04938271604938272,0,0,0.04938271604938272,0,0)" xlink:href="#ao"/><use transform="matrix(0.04938271604938272,0,0,0.04938271604938272,4.197530864197531,0)" xlink:href="#am"/><use transform="matrix(0.04938271604938272,0,0,0.04938271604938272,15.012345679012345,0)" xlink:href="#aq"/><use transform="matrix(0.04938271604938272,0,0,0.04938271604938272,25.827160493827158,0)" xlink:href="#aE"/><use transform="matrix(0.04938271604938272,0,0,0.04938271604938272,31.703703703703702,0)" xlink:href="#aO"/><use transform="matrix(0.04938271604938272,0,0,0.04938271604938272,36.641975308641975,0)" xlink:href="#bf"/><use transform="matrix(0.04938271604938272,0,0,0.04938271604938272,42.51851851851852,0)" xlink:href="#aO"/><use transform="matrix(0.04938271604938272,0,0,0.04938271604938272,47.45679012345679,0)" xlink:href="#aF"/><use transform="matrix(0.04938271604938272,0,0,0.04938271604938272,57.333333333333336,0)" xlink:href="#au"/><use transform="matrix(0.04938271604938272,0,0,0.04938271604938272,67.20987654320987,0)" xlink:href="#aE"/><use transform="matrix(0.04938271604938272,0,0,0.04938271604938272,73.08641975308642,0)" xlink:href="#aO"/><use transform="matrix(0.04938271604938272,0,0,0.04938271604938272,78.02469135802468,0)" xlink:href="#aq"/><use transform="matrix(0.04938271604938272,0,0,0.04938271604938272,88.83950617283949,0)" xlink:href="#am"/><use transform="matrix(0.04938271604938272,0,0,0.04938271604938272,99.6543209876543,0)" xlink:href="#ao"/></g><path fill="#333" d="M52 0c1-96 47-148 87-207H15v-41h169v40c-36 62-79 113-81 208H52" id="bg"/><g id="y"><use transform="matrix(0.04938271604938272,0,0,0.04938271604938272,0,0)" xlink:href="#bg"/><use transform="matrix(0.04938271604938272,0,0,0.04938271604938272,9.876543209876544,0)" xlink:href="#aj"/></g><path fill="#333" d="M240 0l2-218c-23 76-54 145-80 218h-23L58-218 59 0H30v-248h44l77 211c21-75 51-140 76-211h43V0h-30" id="bh"/><path fill="#333" d="M100-194c62-1 85 37 85 99 1 63-27 99-86 99S16-35 15-95c0-66 28-99 85-99zM99-20c44 1 53-31 53-75 0-43-8-75-51-75s-53 32-53 75 10 74 51 75" id="bi"/><path fill="#333" d="M177-190C167-65 218 103 67 71c-23-6-38-20-44-43l32-5c15 47 100 32 89-28v-30C133-14 115 1 83 1 29 1 15-40 15-95c0-56 16-97 71-98 29-1 48 16 59 35 1-10 0-23 2-32h30zM94-22c36 0 50-32 50-73 0-42-14-75-50-75-39 0-46 34-46 75s6 73 46 73" id="bj"/><path fill="#333" d="M30-248c118-7 216 8 213 122C240-48 200 0 122 0H30v-248zM63-27c89 8 146-16 146-99s-60-101-146-95v194" id="bk"/><path fill="#333" d="M160-131c35 5 61 23 61 61C221 17 115-2 30 0v-248c76 3 177-17 177 60 0 33-19 50-47 57zm-97-11c50-1 110 9 110-42 0-47-63-36-110-37v79zm0 115c55-2 124 14 124-45 0-56-70-42-124-44v89" id="bl"/><g id="z"><use transform="matrix(0.06172839506172839,0,0,0.06172839506172839,0,0)" xlink:href="#bh"/><use transform="matrix(0.06172839506172839,0,0,0.06172839506172839,18.456790123456788,0)" xlink:href="#bi"/><use transform="matrix(0.06172839506172839,0,0,0.06172839506172839,30.80246913580247,0)" xlink:href="#ab"/><use transform="matrix(0.06172839506172839,0,0,0.06172839506172839,43.148148148148145,0)" xlink:href="#bj"/><use transform="matrix(0.06172839506172839,0,0,0.06172839506172839,55.49382716049382,0)" xlink:href="#bi"/><use transform="matrix(0.06172839506172839,0,0,0.06172839506172839,67.8395061728395,0)" xlink:href="#bk"/><use transform="matrix(0.06172839506172839,0,0,0.06172839506172839,83.82716049382717,0)" xlink:href="#bl"/></g><g id="A"><use transform="matrix(0.04938271604938272,0,0,0.04938271604938272,0,0)" xlink:href="#aZ"/><use transform="matrix(0.04938271604938272,0,0,0.04938271604938272,9.876543209876544,0)" xlink:href="#aj"/></g><g id="B"><use transform="matrix(0.04938271604938272,0,0,0.04938271604938272,0,0)" xlink:href="#aB"/><use transform="matrix(0.04938271604938272,0,0,0.04938271604938272,11.851851851851853,0)" xlink:href="#al"/><use transform="matrix(0.04938271604938272,0,0,0.04938271604938272,21.7283950617284,0)" xlink:href="#aG"/><use transform="matrix(0.04938271604938272,0,0,0.04938271604938272,28.64197530864198,0)" xlink:href="#at"/><use transform="matrix(0.04938271604938272,0,0,0.04938271604938272,38.518518518518526,0)" xlink:href="#aO"/><use transform="matrix(0.04938271604938272,0,0,0.04938271604938272,43.4567901234568,0)" xlink:href="#at"/><use transform="matrix(0.04938271604938272,0,0,0.04938271604938272,53.333333333333336,0)" xlink:href="#aE"/></g><g id="C"><use transform="matrix(0.04938271604938272,0,0,0.04938271604938272,0,0)" xlink:href="#as"/><use transform="matrix(0.04938271604938272,0,0,0.04938271604938272,15.80246913580247,0)" xlink:href="#al"/><use transform="matrix(0.04938271604938272,0,0,0.04938271604938272,25.679012345679016,0)" xlink:href="#at"/><use transform="matrix(0.04938271604938272,0,0,0.04938271604938272,35.55555555555556,0)" xlink:href="#at"/><use transform="matrix(0.04938271604938272,0,0,0.04938271604938272,45.4320987654321,0)" xlink:href="#au"/><use transform="matrix(0.04938271604938272,0,0,0.04938271604938272,55.308641975308646,0)" xlink:href="#av"/><use transform="matrix(0.04938271604938272,0,0,0.04938271604938272,66.12345679012346,0)" xlink:href="#al"/></g><path fill="#333" d="M-4 44V30h207v14H-4" id="bm"/><g id="D"><use transform="matrix(0.04938271604938272,0,0,0.04938271604938272,0,0)" xlink:href="#bb"/><use transform="matrix(0.04938271604938272,0,0,0.04938271604938272,6.913580246913581,0)" xlink:href="#bm"/><use transform="matrix(0.04938271604938272,0,0,0.04938271604938272,16.790123456790127,0)" xlink:href="#aO"/><use transform="matrix(0.04938271604938272,0,0,0.04938271604938272,21.7283950617284,0)" xlink:href="#an"/></g><path fill="#333" d="M35-132v-50h51v50H35zm51 83c1 42 0 83-19 105H34C46 42 56 24 58 0H35v-49h51" id="bn"/><use transform="matrix(0.04938271604938272,0,0,0.04938271604938272,0,0)" xlink:href="#bn" id="E"/><path fill="#333" d="M144 0l-44-69L55 0H2l70-98-66-92h53l41 62 40-62h54l-67 91 71 99h-54" id="bo"/><g id="F"><use transform="matrix(0.04938271604938272,0,0,0.04938271604938272,0,0)" xlink:href="#aE"/><use transform="matrix(0.04938271604938272,0,0,0.04938271604938272,5.8765432098765435,0)" xlink:href="#al"/><use transform="matrix(0.04938271604938272,0,0,0.04938271604938272,15.753086419753087,0)" xlink:href="#bo"/><use transform="matrix(0.04938271604938272,0,0,0.04938271604938272,25.629629629629633,0)" xlink:href="#aE"/></g><use transform="matrix(0.04938271604938272,0,0,0.04938271604938272,0,0)" xlink:href="#bn" id="G"/><path fill="#333" d="M35-132v-50h50v50H35zM35 0v-49h50V0H35" id="bp"/><g id="H"><use transform="matrix(0.04938271604938272,0,0,0.04938271604938272,0,0)" xlink:href="#at"/><use transform="matrix(0.04938271604938272,0,0,0.04938271604938272,9.876543209876544,0)" xlink:href="#aE"/><use transform="matrix(0.04938271604938272,0,0,0.04938271604938272,15.753086419753087,0)" xlink:href="#au"/><use transform="matrix(0.04938271604938272,0,0,0.04938271604938272,25.629629629629633,0)" xlink:href="#aE"/><use transform="matrix(0.04938271604938272,0,0,0.04938271604938272,31.506172839506174,0)" xlink:href="#aC"/><use transform="matrix(0.04938271604938272,0,0,0.04938271604938272,42.320987654320994,0)" xlink:href="#at"/><use transform="matrix(0.04938271604938272,0,0,0.04938271604938272,52.19753086419754,0)" xlink:href="#bp"/></g><g id="I"><use transform="matrix(0.04938271604938272,0,0,0.04938271604938272,0,0)" xlink:href="#ao"/><use transform="matrix(0.04938271604938272,0,0,0.04938271604938272,4.197530864197531,0)" xlink:href="#aB"/><use transform="matrix(0.04938271604938272,0,0,0.04938271604938272,16.049382716049383,0)" xlink:href="#al"/><use transform="matrix(0.04938271604938272,0,0,0.04938271604938272,25.925925925925927,0)" xlink:href="#am"/><use transform="matrix(0.04938271604938272,0,0,0.04938271604938272,36.74074074074074,0)" xlink:href="#an"/><use transform="matrix(0.04938271604938272,0,0,0.04938271604938272,47.55555555555556,0)" xlink:href="#aO"/><use transform="matrix(0.04938271604938272,0,0,0.04938271604938272,52.49382716049383,0)" xlink:href="#am"/><use transform="matrix(0.04938271604938272,0,0,0.04938271604938272,63.308641975308646,0)" xlink:href="#av"/><use transform="matrix(0.04938271604938272,0,0,0.04938271604938272,74.12345679012346,0)" xlink:href="#ao"/></g><use transform="matrix(0.04938271604938272,0,0,0.04938271604938272,0,0)" xlink:href="#bd" id="J"/><path fill="#333" d="M115-159c48 0 72 30 72 78 0 54-30 85-83 85-64 0-91-50-91-122 0-98 58-163 141-120 15 8 21 24 27 44l-47 6c-5-31-48-31-61-4-7 14-11 33-11 60 9-17 28-27 53-27zM102-35c24 0 36-20 36-45s-11-43-37-43c-23 0-36 14-36 38 0 27 11 50 37 50" id="bq"/><g id="K"><use transform="matrix(0.04938271604938272,0,0,0.04938271604938272,0,0)" xlink:href="#bq"/><use transform="matrix(0.04938271604938272,0,0,0.04938271604938272,9.876543209876544,0)" xlink:href="#aj"/></g><path fill="#333" d="M238-95c0 69-44 99-111 99C63 4 22-25 22-93v-155h51v151c-1 38 19 59 55 60 90 1 49-130 58-211h52v153" id="br"/><g id="L"><use transform="matrix(0.04938271604938272,0,0,0.04938271604938272,0,0)" xlink:href="#br"/><use transform="matrix(0.04938271604938272,0,0,0.04938271604938272,12.790123456790125,0)" xlink:href="#aY"/><use transform="matrix(0.04938271604938272,0,0,0.04938271604938272,23.60493827160494,0)" xlink:href="#an"/><use transform="matrix(0.04938271604938272,0,0,0.04938271604938272,34.41975308641975,0)" xlink:href="#au"/><use transform="matrix(0.04938271604938272,0,0,0.04938271604938272,44.2962962962963,0)" xlink:href="#aE"/><use transform="matrix(0.04938271604938272,0,0,0.04938271604938272,50.17283950617284,0)" xlink:href="#al"/></g><g id="M"><use transform="matrix(0.04938271604938272,0,0,0.04938271604938272,0,0)" xlink:href="#aE"/><use transform="matrix(0.04938271604938272,0,0,0.04938271604938272,5.8765432098765435,0)" xlink:href="#al"/><use transform="matrix(0.04938271604938272,0,0,0.04938271604938272,15.753086419753087,0)" xlink:href="#bo"/><use transform="matrix(0.04938271604938272,0,0,0.04938271604938272,25.629629629629633,0)" xlink:href="#aE"/><use transform="matrix(0.04938271604938272,0,0,0.04938271604938272,31.506172839506174,0)" xlink:href="#bn"/></g><path fill="#333" d="M67-125c0 53 21 87 73 88 37 1 54-22 65-47l45 17C233-25 199 4 140 4 58 4 20-42 15-125 8-235 124-281 211-232c18 10 29 29 36 50l-46 12c-8-25-30-41-62-41-52 0-71 34-72 86" id="bs"/><path fill="#333" d="M25 0v-261h50V0H25" id="bt"/><g id="N"><use transform="matrix(0.04938271604938272,0,0,0.04938271604938272,0,0)" xlink:href="#ao"/><use transform="matrix(0.04938271604938272,0,0,0.04938271604938272,4.197530864197531,0)" xlink:href="#bs"/><use transform="matrix(0.04938271604938272,0,0,0.04938271604938272,16.987654320987655,0)" xlink:href="#aq"/><use transform="matrix(0.04938271604938272,0,0,0.04938271604938272,27.802469135802465,0)" xlink:href="#as"/><use transform="matrix(0.04938271604938272,0,0,0.04938271604938272,43.60493827160494,0)" xlink:href="#aY"/><use transform="matrix(0.04938271604938272,0,0,0.04938271604938272,54.41975308641976,0)" xlink:href="#bt"/><use transform="matrix(0.04938271604938272,0,0,0.04938271604938272,59.35802469135803,0)" xlink:href="#al"/><use transform="matrix(0.04938271604938272,0,0,0.04938271604938272,69.23456790123457,0)" xlink:href="#aE"/><use transform="matrix(0.04938271604938272,0,0,0.04938271604938272,75.11111111111111,0)" xlink:href="#al"/><use transform="matrix(0.04938271604938272,0,0,0.04938271604938272,84.98765432098766,0)" xlink:href="#an"/><use transform="matrix(0.04938271604938272,0,0,0.04938271604938272,95.80246913580247,0)" xlink:href="#ao"/></g><g id="O"><use transform="matrix(0.04938271604938272,0,0,0.04938271604938272,0,0)" xlink:href="#aG"/><use transform="matrix(0.04938271604938272,0,0,0.04938271604938272,6.913580246913581,0)" xlink:href="#al"/><use transform="matrix(0.04938271604938272,0,0,0.04938271604938272,16.790123456790127,0)" xlink:href="#at"/><use transform="matrix(0.04938271604938272,0,0,0.04938271604938272,26.666666666666668,0)" xlink:href="#aC"/><use transform="matrix(0.04938271604938272,0,0,0.04938271604938272,37.48148148148149,0)" xlink:href="#bt"/><use transform="matrix(0.04938271604938272,0,0,0.04938271604938272,42.41975308641976,0)" xlink:href="#aE"/></g><path fill="#333" d="M24 0v-248h52v208h133V0H24" id="bu"/><g id="P"><use transform="matrix(0.04938271604938272,0,0,0.04938271604938272,0,0)" xlink:href="#bu"/><use transform="matrix(0.04938271604938272,0,0,0.04938271604938272,10.814814814814815,0)" xlink:href="#aO"/><use transform="matrix(0.04938271604938272,0,0,0.04938271604938272,15.753086419753087,0)" xlink:href="#at"/><use transform="matrix(0.04938271604938272,0,0,0.04938271604938272,25.629629629629633,0)" xlink:href="#aE"/><use transform="matrix(0.04938271604938272,0,0,0.04938271604938272,31.506172839506174,0)" xlink:href="#al"/><use transform="matrix(0.04938271604938272,0,0,0.04938271604938272,41.38271604938272,0)" xlink:href="#am"/></g><g id="Q"><use transform="matrix(0.04938271604938272,0,0,0.04938271604938272,0,0)" xlink:href="#aE"/><use transform="matrix(0.04938271604938272,0,0,0.04938271604938272,5.8765432098765435,0)" xlink:href="#aq"/></g><g id="R"><use transform="matrix(0.04938271604938272,0,0,0.04938271604938272,0,0)" xlink:href="#aO"/><use transform="matrix(0.04938271604938272,0,0,0.04938271604938272,4.938271604938272,0)" xlink:href="#am"/><use transform="matrix(0.04938271604938272,0,0,0.04938271604938272,15.753086419753087,0)" xlink:href="#aF"/><use transform="matrix(0.04938271604938272,0,0,0.04938271604938272,25.629629629629633,0)" xlink:href="#aq"/><use transform="matrix(0.04938271604938272,0,0,0.04938271604938272,36.44444444444445,0)" xlink:href="#as"/><use transform="matrix(0.04938271604938272,0,0,0.04938271604938272,52.24691358024692,0)" xlink:href="#aO"/><use transform="matrix(0.04938271604938272,0,0,0.04938271604938272,57.18518518518519,0)" xlink:href="#am"/><use transform="matrix(0.04938271604938272,0,0,0.04938271604938272,68,0)" xlink:href="#av"/></g><g id="S"><use transform="matrix(0.04938271604938272,0,0,0.04938271604938272,0,0)" xlink:href="#ao"/><use transform="matrix(0.04938271604938272,0,0,0.04938271604938272,4.197530864197531,0)" xlink:href="#am"/><use transform="matrix(0.04938271604938272,0,0,0.04938271604938272,15.012345679012345,0)" xlink:href="#aq"/><use transform="matrix(0.04938271604938272,0,0,0.04938271604938272,25.827160493827158,0)" xlink:href="#aE"/><use transform="matrix(0.04938271604938272,0,0,0.04938271604938272,31.703703703703702,0)" xlink:href="#aO"/><use transform="matrix(0.04938271604938272,0,0,0.04938271604938272,36.641975308641975,0)" xlink:href="#bf"/><use transform="matrix(0.04938271604938272,0,0,0.04938271604938272,42.51851851851852,0)" xlink:href="#aO"/><use transform="matrix(0.04938271604938272,0,0,0.04938271604938272,47.45679012345679,0)" xlink:href="#aF"/><use transform="matrix(0.04938271604938272,0,0,0.04938271604938272,57.333333333333336,0)" xlink:href="#au"/><use transform="matrix(0.04938271604938272,0,0,0.04938271604938272,67.20987654320987,0)" xlink:href="#aE"/><use transform="matrix(0.04938271604938272,0,0,0.04938271604938272,73.08641975308642,0)" xlink:href="#aO"/><use transform="matrix(0.04938271604938272,0,0,0.04938271604938272,78.02469135802468,0)" xlink:href="#aq"/><use transform="matrix(0.04938271604938272,0,0,0.04938271604938272,88.83950617283949,0)" xlink:href="#am"/><use transform="matrix(0.04938271604938272,0,0,0.04938271604938272,99.6543209876543,0)" xlink:href="#ao"/></g><g id="T"><use transform="matrix(0.04938271604938272,0,0,0.04938271604938272,0,0)" xlink:href="#as"/><use transform="matrix(0.04938271604938272,0,0,0.04938271604938272,15.80246913580247,0)" xlink:href="#al"/><use transform="matrix(0.04938271604938272,0,0,0.04938271604938272,25.679012345679016,0)" xlink:href="#at"/><use transform="matrix(0.04938271604938272,0,0,0.04938271604938272,35.55555555555556,0)" xlink:href="#at"/><use transform="matrix(0.04938271604938272,0,0,0.04938271604938272,45.4320987654321,0)" xlink:href="#au"/><use transform="matrix(0.04938271604938272,0,0,0.04938271604938272,55.308641975308646,0)" xlink:href="#av"/><use transform="matrix(0.04938271604938272,0,0,0.04938271604938272,66.12345679012346,0)" xlink:href="#al"/></g><path fill="#333" d="M67-93c0 74 22 123 53 168H70C40 30 18-18 18-93s22-123 52-168h50c-32 44-53 94-53 168" id="bv"/><path fill="#333" d="M231 0h-52l-39-155L100 0H48L-1-190h46L77-45c9-52 24-97 36-145h53l37 145 32-145h46" id="bw"/><path fill="#333" d="M147 0L96-86 75-71V0H25v-261h50v150l67-79h53l-66 74L201 0h-54" id="bx"/><path fill="#333" d="M102-93c0 74-22 123-52 168H0C30 29 54-18 53-93c0-74-22-123-53-168h50c30 45 52 94 52 168" id="by"/><g id="U"><use transform="matrix(0.04938271604938272,0,0,0.04938271604938272,0,0)" xlink:href="#bv"/><use transform="matrix(0.04938271604938272,0,0,0.04938271604938272,5.8765432098765435,0)" xlink:href="#bw"/><use transform="matrix(0.04938271604938272,0,0,0.04938271604938272,19.703703703703706,0)" xlink:href="#al"/><use transform="matrix(0.04938271604938272,0,0,0.04938271604938272,29.58024691358025,0)" xlink:href="#ar"/><use transform="matrix(0.04938271604938272,0,0,0.04938271604938272,40.39506172839506,0)" xlink:href="#at"/><use transform="matrix(0.04938271604938272,0,0,0.04938271604938272,50.27160493827161,0)" xlink:href="#aq"/><use transform="matrix(0.04938271604938272,0,0,0.04938271604938272,61.086419753086425,0)" xlink:href="#aF"/><use transform="matrix(0.04938271604938272,0,0,0.04938271604938272,70.96296296296296,0)" xlink:href="#bx"/><use transform="matrix(0.04938271604938272,0,0,0.04938271604938272,80.8395061728395,0)" xlink:href="#al"/><use transform="matrix(0.04938271604938272,0,0,0.04938271604938272,90.71604938271605,0)" xlink:href="#aE"/><use transform="matrix(0.04938271604938272,0,0,0.04938271604938272,96.5925925925926,0)" xlink:href="#by"/></g></defs></g></svg>